<svg t="1584864008173" class="icon" viewBox="0 0 1024 1024" version="1.1" xmlns="http://www.w3.org/2000/svg" p-id="22756" width="128" height="128"><path d="M928.768 1013.76H138.752c-14.336 0-25.6-11.264-25.6-25.6V46.08c0-14.336 11.264-25.6 25.6-25.6h790.016c14.336 0 25.6 11.264 25.6 25.6v942.08c0 14.336-11.264 25.6-25.6 25.6zM164.352 962.56h738.816V71.68H164.352v890.88z" p-id="22757"></path><path d="M623.616 573.44c-67.072 0-121.344-54.272-121.344-121.344s54.272-121.344 121.344-121.344 121.344 54.272 121.344 121.344-54.272 121.344-121.344 121.344z m0-191.488c-38.912 0-70.144 31.232-70.144 70.144s31.232 70.144 70.144 70.144 70.144-31.232 70.144-70.144-31.232-70.144-70.144-70.144zM442.88 849.92c-67.072 0-121.344-54.272-121.344-121.344s54.272-121.344 121.344-121.344 121.344 54.272 121.344 121.344S509.952 849.92 442.88 849.92z m0-191.488c-38.912 0-70.144 31.232-70.144 70.144S403.968 798.72 442.88 798.72s70.144-31.232 70.144-70.144-31.232-70.144-70.144-70.144z" p-id="22758"></path><path d="M516.608 477.696H279.552c-14.336 0-25.6-11.264-25.6-25.6s11.264-25.6 25.6-25.6h237.056c14.336 0 25.6 11.264 25.6 25.6s-11.264 25.6-25.6 25.6zM787.456 754.176h-237.056c-14.336 0-25.6-11.264-25.6-25.6s11.264-25.6 25.6-25.6h237.056c14.336 0 25.6 11.264 25.6 25.6s-11.264 25.6-25.6 25.6zM787.456 472.064h-28.672c-14.336 0-25.6-11.264-25.6-25.6s11.264-25.6 25.6-25.6h28.672c14.336 0 25.6 11.264 25.6 25.6s-11.264 25.6-25.6 25.6zM307.712 754.176h-28.16c-14.336 0-25.6-11.264-25.6-25.6s11.264-25.6 25.6-25.6h28.16c14.336 0 25.6 11.264 25.6 25.6s-11.264 25.6-25.6 25.6zM646.144 201.216H420.352c-14.336 0-25.6-11.264-25.6-25.6s11.264-25.6 25.6-25.6h225.792c14.336 0 25.6 11.264 25.6 25.6s-11.264 25.6-25.6 25.6z" p-id="22759"></path></svg>