<svg t="1584844960668" class="icon" viewBox="0 0 1024 1024" version="1.1" xmlns="http://www.w3.org/2000/svg" p-id="20948" width="128" height="128"><path d="M512 2.56C231.424 2.56 3.584 229.888 3.584 510.976S231.424 1018.88 512 1018.88s508.416-227.328 508.416-508.416S793.088 2.56 512 2.56z m0 941.568c-239.616 0-433.664-194.048-433.664-433.664C78.336 270.848 272.384 76.8 512 76.8s433.664 194.048 433.664 433.664-194.048 433.664-433.664 433.664z" p-id="20949"></path><path d="M740.352 470.528c-0.512 0.512-1.024 1.536-2.048 2.048l-326.656 303.104c-2.048 1.536-4.096 3.072-6.656 4.096-5.632 2.048-10.752 3.072-15.872 3.072-8.192 0-14.848-2.56-19.456-7.68-7.68-7.168-6.656-16.384-6.144-18.944 0-1.024 0.512-2.048 1.024-3.072l71.68-181.76H305.664c-15.36 0-22.016-7.168-24.576-11.264-5.12-8.192-2.56-16.896 2.048-22.528 0.512-0.512 0.512-1.024 1.024-1.536l278.528-289.28c1.536-1.536 3.072-2.56 5.12-3.584 2.048-1.024 10.24-4.608 18.944-4.608 8.192 0 14.848 2.56 19.968 7.68 5.632 5.632 8.192 13.824 7.168 24.064v1.536l-37.376 162.304 144.896 1.024h1.536c13.824 1.024 19.456 8.704 21.504 11.776 4.608 10.24-2.048 20.48-4.096 23.552z" p-id="20950"></path></svg>