<svg t="1584845173727" class="icon" viewBox="0 0 1024 1024" version="1.1" xmlns="http://www.w3.org/2000/svg" p-id="22513" width="128" height="128"><path d="M880.179775 0H143.820225A97.797753 97.797753 0 0 0 46.022472 97.797753v828.404494a97.797753 97.797753 0 0 0 97.797753 97.797753h736.35955a97.797753 97.797753 0 0 0 97.797753-97.797753V97.797753a97.797753 97.797753 0 0 0-97.797753-97.797753z m17.258427 926.202247a17.258427 17.258427 0 0 1-17.258427 17.258427H143.820225a17.258427 17.258427 0 0 1-17.258427-17.258427V126.561798a17.258427 17.258427 0 0 1 17.258427-17.258427h736.35955a17.258427 17.258427 0 0 1 17.258427 17.258427z" p-id="22514"></path><path d="M754.423371 796.418876H268.828764c-60.692135 0-58.160899 72.197753 0 72.197753h485.594607c64.488989 0.057528 55.629663-72.197753 0-72.197753zM266.815281 719.101124h201.923595c61.612584 0 53.155955-72.140225 0-72.140225h-201.923595c-57.988315-0.172584-55.572135 72.140225 0 72.140225z" p-id="22515"></path><path d="M637.008539 384.747865a13.173933 13.173933 0 0 1-5.062472 5.752809l-105.506516 70.18427a27.325843 27.325843 0 0 1-28.01618 0L392.629213 390.270562a13.404045 13.404045 0 0 1-5.004943-5.752809H339.41573a17.948764 17.948764 0 0 0 7.53618 9.837303L493.01573 495.14427a36.645393 36.645393 0 0 0 38.658877 0l145.718651-100.328989a17.661124 17.661124 0 0 0 7.593708-10.124944z" p-id="22516"></path><path d="M631.946067 461.202697l-105.506516 70.184269a27.325843 27.325843 0 0 1-28.01618 0L392.629213 460.972584a13.404045 13.404045 0 0 1-5.004943-5.752809H339.41573a17.948764 17.948764 0 0 0 7.53618 9.837304L493.01573 565.846292a36.645393 36.645393 0 0 0 38.658877 0l145.718651-100.328989a17.661124 17.661124 0 0 0 7.593708-10.124943h-47.920899a13.231461 13.231461 0 0 1-5.12 5.810337zM346.894382 324.170787l146.121348 100.559101a36.645393 36.645393 0 0 0 38.658877 0l145.661123-100.271461a15.07236 15.07236 0 0 0 0-26.577978l-146.121348-100.616629a36.645393 36.645393 0 0 0-38.658876 0L346.894382 297.535281a15.07236 15.07236 0 0 0 0 26.635506z" p-id="22517"></path></svg>